# xmcd
#
# Track frame offsets:
# 150
# 12060
# 28967
# 41746
# 51083
# 65089
# 78768
# 90036
# 99403
# 110584
# 122774
# 137847
# 146030
# 158196
# 170747
# 179086
#
# Disc length: 2548 seconds
#
#
# Revision: 0
# Processed by: cddbd v1.5.1PL0 Copyright (c) Steve Scherf et al.
# Submitted via: FreeRIP 2.51 
#
DISCID=db09f210
DTITLE=Willie Nelson - Legendary Hits
DYEAR=1999
DGENRE=Country
TTITLE0=I´ll Stay Around
TTITLE1=I Let My Mind Wander
TTITLE2=Any Old Arms Will Do
TTITLE3=One Step Beyond
TTITLE4=No Tomorrow In Sight
TTITLE5=You´ll Always Have Someone
TTITLE6=Suffer In Silence
TTITLE7=Right From Wrong
TTITLE8=Go Away
TTITLE9=December Day
TTITLE10=And So Will You My Love
TTITLE11=Things To Remember
TTITLE12=End Of Understanding
TTITLE13=Shelter Of Your Arms
TTITLE14=You Wouldn´t Cross The Street
TTITLE15=I Can´t Find The Time
EXTD=
EXTT0=
EXTT1=
EXTT2=
EXTT3=
EXTT4=
EXTT5=
EXTT6=
EXTT7=
EXTT8=
EXTT9=
EXTT10=
EXTT11=
EXTT12=
EXTT13=
EXTT14=
EXTT15=
PLAYORDER=
